<svg width="250" height="250" viewBox="0 0 250 250" fill="none" xmlns="http://www.w3.org/2000/svg">
<path d="M44 119.936V205.259H53.8605C72.3608 205.818 113.869 206.601 131.9 205.259C154.438 203.58 161.966 197.355 167.679 193.229L167.833 193.119C174.645 188.201 192.592 175.246 199.797 156.583C204.98 143.155 206.089 130.1 205.995 125.251V83.8484V44.1243C205.995 44.1243 198.482 44.0311 194.725 44.1243H187.964C164.486 43.8446 127.314 44.1243 113.869 44.1243C110.11 44.1243 97.5287 47.2015 89.3585 51.118C81.1883 55.0345 69.074 63.9864 57.2413 78.8129C47.7752 90.6742 44.4695 111.17 44 119.936Z" fill="#010446"/>
<path d="M44 119.936V205.259H53.8605C72.3608 205.818 113.869 206.601 131.9 205.259C154.438 203.58 161.966 197.355 167.679 193.229L167.833 193.119C174.645 188.201 192.592 175.246 199.797 156.583C204.98 143.155 206.089 130.1 205.995 125.251V83.8484V44.1243C205.995 44.1243 198.482 44.0311 194.725 44.1243H187.964C164.486 43.8446 127.314 44.1243 113.869 44.1243C110.11 44.1243 97.5287 47.2015 89.3585 51.118C81.1883 55.0345 69.074 63.9864 57.2413 78.8129C47.7752 90.6742 44.4695 111.17 44 119.936Z" stroke="#010446" stroke-width="13"/>
<path d="M97.9206 96.1595C80.4658 102.242 62.7586 118.912 56.3422 127.326C62.5019 138.916 86.371 154.024 106.904 158.145C127.436 162.266 140.782 160.721 160.801 152.053C173.56 146.528 187.152 133.679 192.114 127.326C187.152 121.316 173.121 107.287 156.695 99.2504C136.162 89.2051 116.656 89.6308 97.9206 96.1595Z" fill="white" stroke="#010446" stroke-width="2"/>
<path d="M149.957 126.654C149.957 140.745 138.441 152.174 124.228 152.174C110.015 152.174 98.4995 140.745 98.4995 126.654C98.4995 112.563 110.015 101.133 124.228 101.133C138.441 101.133 149.957 112.563 149.957 126.654Z" fill="#010446" stroke="#010446"/>
</svg>
